<svg width="300" height="115" viewBox="0 0 300 115" fill="none" xmlns="http://www.w3.org/2000/svg">
    <path d="M68.6899 70.7876V52.2892H65.3352V47.2732H68.6899V44.5895C68.6899 42.7364 69.1798 41.1922 70.1595 39.9569C71.1393 38.7215 72.758 38.1039 75.0158 38.1039C75.6547 38.1039 76.347 38.1784 77.0924 38.3275C77.8379 38.4766 78.4662 38.6363 78.9774 38.8067V43.1198H76.741C75.4417 43.1198 74.7921 43.7588 74.7921 45.0368V47.2732H78.9774V52.2892H74.7921V70.7876H68.6899ZM92.6835 71.3307C88.9135 71.3307 86.0914 70.3297 84.2171 68.3275C82.364 66.3254 81.4375 63.2264 81.4375 59.0304C81.4375 54.8344 82.364 51.7354 84.2171 49.7333C86.0914 47.7311 88.9135 46.7301 92.6835 46.7301C96.1766 46.7301 98.7858 47.7418 100.511 49.7652C102.258 51.7673 103.131 54.8557 103.131 59.0304V60.4681H87.6356C87.6995 62.5554 88.1148 64.0996 88.8816 65.1007C89.6697 66.1018 90.9689 66.6023 92.7794 66.6023C94.0573 66.6023 95.101 66.2402 95.9104 65.516C96.6984 64.7919 97.0925 63.7801 97.0925 62.4809H103.131C103.131 65.4202 102.172 67.6353 100.255 69.1263C98.3385 70.5959 95.8145 71.3307 92.6835 71.3307ZM87.7314 56.3786H96.773C96.773 53.1411 95.4098 51.5224 92.6835 51.5224C91.15 51.5224 89.9892 51.9271 89.2011 52.7365C88.3917 53.5245 87.9018 54.7386 87.7314 56.3786ZM117.572 71.3307C113.78 71.3307 110.948 70.3297 109.073 68.3275C107.22 66.3254 106.294 63.2264 106.294 59.0304C106.294 54.8344 107.22 51.7354 109.073 49.7333C110.948 47.7311 113.78 46.7301 117.572 46.7301C121.065 46.7301 123.674 47.7418 125.399 49.7652C127.124 51.7673 127.987 54.8557 127.987 59.0304V60.4681H112.524C112.566 62.5554 112.982 64.0996 113.77 65.1007C114.537 66.1018 115.836 66.6023 117.668 66.6023C118.946 66.6023 119.979 66.2402 120.767 65.516C121.555 64.7919 121.949 63.7801 121.949 62.4809H127.987C127.987 65.4202 127.029 67.6353 125.112 69.1263C123.216 70.5959 120.703 71.3307 117.572 71.3307ZM112.588 56.3786H121.629C121.629 53.1411 120.277 51.5224 117.572 51.5224C116.017 51.5224 114.845 51.9271 114.057 52.7365C113.269 53.5245 112.779 54.7386 112.588 56.3786ZM140.607 71.3307C137.625 71.3307 135.314 70.3084 133.674 68.2636C132.034 66.2189 131.214 63.1305 131.214 58.9985C131.214 54.9303 132.034 51.8738 133.674 49.8291C135.335 47.7631 137.54 46.7301 140.287 46.7301C141.864 46.7301 143.259 47.0176 144.473 47.5927C145.687 48.1465 146.635 48.9452 147.316 49.9889H147.572V38.4553H153.706V70.7876H148.466L148.083 67.7205H147.763C147.018 68.9133 146.017 69.8078 144.76 70.4042C143.504 71.0219 142.119 71.3307 140.607 71.3307ZM142.556 65.9953C145.9 65.9953 147.572 63.8121 147.572 59.4457V58.7109C147.572 54.2807 145.9 52.0655 142.556 52.0655C140.745 52.0655 139.457 52.6087 138.69 53.6949C137.902 54.7812 137.508 56.4212 137.508 58.6151V59.4457C137.508 61.6396 137.902 63.2796 138.69 64.3659C139.457 65.4521 140.745 65.9953 142.556 65.9953ZM160.064 78.5192V47.2732H165.303L165.687 50.3403H166.006C166.752 49.1475 167.753 48.253 169.01 47.6566C170.266 47.0389 171.651 46.7301 173.163 46.7301C176.145 46.7301 178.456 47.7524 180.096 49.7972C181.736 51.8419 182.556 54.9303 182.556 59.0623C182.556 63.1305 181.725 66.187 180.064 68.2317C178.424 70.2977 176.23 71.3307 173.482 71.3307C171.906 71.3307 170.511 71.0432 169.297 70.4681C168.083 69.9143 167.135 69.1156 166.454 68.0719H166.198V78.5192H160.064ZM171.182 65.9953C173.014 65.9953 174.313 65.4521 175.08 64.3659C175.868 63.2796 176.262 61.6396 176.262 59.4457V58.6151C176.262 56.4212 175.868 54.7812 175.08 53.6949C174.313 52.6087 173.014 52.0655 171.182 52.0655C167.859 52.0655 166.198 54.2487 166.198 58.6151V59.3499C166.198 63.7801 167.859 65.9953 171.182 65.9953ZM187.38 70.7876V38.4553H193.514V70.7876H187.38ZM209.201 71.3307C205.921 71.3307 203.355 70.6492 201.502 69.286C199.627 67.9442 198.69 66.1337 198.69 63.8547L198.754 63.3116H204.696V63.631C204.718 64.6747 205.186 65.4308 206.102 65.8994C207.018 66.368 208.126 66.6023 209.425 66.6023C210.66 66.6023 211.704 66.4319 212.556 66.0911C213.429 65.7716 213.866 65.2391 213.866 64.4937C213.866 63.663 213.429 63.0347 212.556 62.6087C211.661 62.1827 210.277 61.7674 208.403 61.3627C206.464 60.9154 204.888 60.4575 203.674 59.9889C202.439 59.5203 201.374 58.7961 200.479 57.8163C199.585 56.8366 199.137 55.5267 199.137 53.8866C199.137 51.5863 200.106 49.8185 202.045 48.5831C203.962 47.3477 206.443 46.7301 209.489 46.7301C212.322 46.7301 214.665 47.3051 216.518 48.4553C218.349 49.6055 219.265 51.1603 219.265 53.1198L219.233 54.1422H213.291V54.0783C213.248 53.205 212.875 52.5554 212.173 52.1294C211.448 51.6821 210.479 51.4585 209.265 51.4585C208.03 51.4585 207.061 51.6289 206.358 51.9697C205.634 52.2892 205.272 52.7471 205.272 53.3435C205.272 54.089 205.687 54.6427 206.518 55.0048C207.327 55.3669 208.647 55.729 210.479 56.0911C212.46 56.5384 214.079 56.9857 215.335 57.433C216.592 57.8802 217.678 58.6044 218.594 59.6055C219.531 60.6278 220 62.0017 220 63.7269C220 68.7961 216.4 71.3307 209.201 71.3307Z" fill="#193655"/>
    <path d="M48.6009 28H3.73438C2.74396 28 1.79411 28.3934 1.09377 29.0938C0.393442 29.7941 0 30.744 0 31.7344V76.6009C0 77.5913 0.393442 78.5411 1.09377 79.2415C1.79411 79.9418 2.74396 80.3352 3.73438 80.3352H7.06798L20.1262 88.6231L17.9296 80.3346H48.6009C49.5913 80.3346 50.5411 79.9411 51.2415 79.2408C51.9418 78.5405 52.3352 77.5906 52.3352 76.6002V31.7344C52.3351 30.744 51.9416 29.7943 51.2413 29.094C50.541 28.3937 49.5912 28.0002 48.6009 28V28ZM13.6018 71.9645C12.2219 71.9489 10.9039 71.3898 9.9337 70.4085C8.96349 69.4272 8.41934 68.1029 8.41934 66.723C8.41934 65.3431 8.96349 64.0188 9.9337 63.0375C10.9039 62.0562 12.2219 61.4971 13.6018 61.4815C14.2901 61.4813 14.9717 61.6167 15.6077 61.88C16.2436 62.1433 16.8215 62.5293 17.3083 63.0159C17.7951 63.5025 18.1812 64.0803 18.4446 64.7162C18.7081 65.3521 18.8437 66.0337 18.8437 66.722C18.8437 69.6184 16.4969 71.9645 13.6018 71.9645V71.9645ZM25.0057 71.9639C25.0037 67.3673 23.1533 63.2415 20.143 60.2239C17.126 57.2143 12.9996 55.3626 8.40101 55.3612V47.7524C11.5813 47.7489 14.731 48.3735 17.6693 49.5905C20.6075 50.8074 23.2765 52.5928 25.523 54.8439C27.7738 57.0904 29.5589 59.7591 30.7758 62.6971C31.9928 65.6351 32.6176 68.7845 32.6145 71.9645H25.0057V71.9639ZM36.3664 71.9645C36.3651 64.2243 33.2403 57.2513 28.1709 52.1758C23.094 47.1037 16.121 43.9809 8.38013 43.9782V36.37C28.0415 36.372 43.974 52.3038 43.9773 71.9645H36.3664V71.9645Z" fill="url(#paint0_linear_1_39)"/>
    <defs>
        <linearGradient id="paint0_linear_1_39" x1="1" y1="79.3116" x2="35.5" y2="41.8116" gradientUnits="userSpaceOnUse">
            <stop stop-color="#F2DF3A"/>
            <stop offset="0.552083" stop-color="#C0CD76"/>
            <stop offset="0.583333" stop-color="#87B8BB"/>
            <stop offset="1" stop-color="#51A4FB"/>
        </linearGradient>
    </defs>
</svg>
